HIERARCHY
ROOT Hips
{
	OFFSET -14.64140 90.27770 -84.91600
	CHANNELS 6 Xposition Yposition Zposition Zrotation Xrotation Yrotation
	JOINT Spine
	{
		OFFSET 0.00000 13.20850 -1.60436
		CHANNELS 3 Zrotation Xrotation Yrotation
		JOINT Spine1
		{
			OFFSET 0.00000 8.61716 0.00000
			CHANNELS 3 Zrotation Xrotation Yrotation
			JOINT Spine2
			{
				OFFSET 0.00000 8.61717 0.00000
				CHANNELS 3 Zrotation Xrotation Yrotation
				JOINT Spine3
				{
					OFFSET 0.00000 8.61717 0.00000
					CHANNELS 3 Zrotation Xrotation Yrotation
					JOINT Neck
					{
						OFFSET 0.00000 11.07920 1.10792
						CHANNELS 3 Zrotation Xrotation Yrotation
						JOINT Neck1
						{
							OFFSET 0.00000 7.08032 0.00000
							CHANNELS 3 Zrotation Xrotation Yrotation
							JOINT Head
							{
								OFFSET 0.00000 7.08031 0.00000
								CHANNELS 3 Zrotation Xrotation Yrotation
								End site
								{
									OFFSET 0.00000 0.00000 0.00000
								}
							}
						}
					}
					JOINT RightShoulder
					{
						OFFSET -0.01000 7.91373 5.19711
						CHANNELS 3 Zrotation Xrotation Yrotation
						JOINT RightArm
						{
							OFFSET -18.41580 0.00000 0.00000
							CHANNELS 3 Zrotation Xrotation Yrotation
							JOINT RightForeArm
							{
								OFFSET -29.11090 0.00000 0.00000
								CHANNELS 3 Zrotation Xrotation Yrotation
								JOINT RightHand
								{
									OFFSET -24.65040 0.00000 0.00000
									CHANNELS 3 Zrotation Xrotation Yrotation
									JOINT RightHandThumb1
									{
										OFFSET -5.35114 -0.85590 3.97906
										CHANNELS 3 Zrotation Xrotation Yrotation
										JOINT RightHandThumb2
										{
											OFFSET -4.52789 0.00000 0.00000
											CHANNELS 3 Zrotation Xrotation Yrotation
											JOINT RightHandThumb3
											{
												OFFSET -2.46976 0.00000 0.00000
												CHANNELS 3 Zrotation Xrotation Yrotation
												End site
												{
													OFFSET 0.00000 0.00000 0.00000
												}
											}
										}
									}
									JOINT RightHandIndex1
									{
										OFFSET -14.26970 0.00000 2.88139
										CHANNELS 3 Zrotation Xrotation Yrotation
										JOINT RightHandIndex2
										{
											OFFSET -5.48836 0.00000 0.00000
											CHANNELS 3 Zrotation Xrotation Yrotation
											JOINT RightHandIndex3
											{
												OFFSET -3.01859 0.00000 0.00000
												CHANNELS 3 Zrotation Xrotation Yrotation
												End site
												{
													OFFSET 0.00000 0.00000 0.00000
												}
											}
										}
									}
									JOINT RightHandMiddle1
									{
										OFFSET -14.26970 0.00000 -0.09147
										CHANNELS 3 Zrotation Xrotation Yrotation
										JOINT RightHandMiddle2
										{
											OFFSET -6.17441 0.00000 0.00000
											CHANNELS 3 Zrotation Xrotation Yrotation
											JOINT RightHandMiddle3
											{
												OFFSET -3.56743 0.00000 0.00000
												CHANNELS 3 Zrotation Xrotation Yrotation
												End site
												{
													OFFSET 0.00000 0.00000 0.00000
												}
											}
										}
									}
									JOINT RightHandRing1
									{
										OFFSET -12.69180 0.00000 -3.06433
										CHANNELS 3 Zrotation Xrotation Yrotation
										JOINT RightHandRing2
										{
											OFFSET -5.62556 0.00000 0.00000
											CHANNELS 3 Zrotation Xrotation Yrotation
											JOINT RightHandRing3
											{
												OFFSET -3.56744 0.00000 0.00000
												CHANNELS 3 Zrotation Xrotation Yrotation
												End site
												{
													OFFSET 0.00000 0.00000 0.00000
												}
											}
										}
									}
									JOINT RightHandPinky1
									{
										OFFSET -11.11390 0.00000 -6.03719
										CHANNELS 3 Zrotation Xrotation Yrotation
										JOINT RightHandPinky2
										{
											OFFSET -4.52789 0.00000 0.00000
											CHANNELS 3 Zrotation Xrotation Yrotation
											JOINT RightHandPinky3
											{
												OFFSET -2.46976 0.00000 0.00000
												CHANNELS 3 Zrotation Xrotation Yrotation
												End site
												{
													OFFSET 0.00000 0.00000 0.00000
												}
											}
										}
									}
								}
							}
						}
					}
					JOINT LeftShoulder
					{
						OFFSET 0.01000 7.91373 5.19711
						CHANNELS 3 Zrotation Xrotation Yrotation
						JOINT LeftArm
						{
							OFFSET 18.41580 0.00000 0.00000
							CHANNELS 3 Zrotation Xrotation Yrotation
							JOINT LeftForeArm
							{
								OFFSET 29.11090 0.00000 0.00000
								CHANNELS 3 Zrotation Xrotation Yrotation
								JOINT LeftHand
								{
									OFFSET 24.65040 0.00000 0.00000
									CHANNELS 3 Zrotation Xrotation Yrotation
									JOINT LeftHandThumb1
									{
										OFFSET 5.35114 -0.85590 3.97906
										CHANNELS 3 Zrotation Xrotation Yrotation
										JOINT LeftHandThumb2
										{
											OFFSET 4.52789 0.00000 0.00000
											CHANNELS 3 Zrotation Xrotation Yrotation
											JOINT LeftHandThumb3
											{
												OFFSET 2.46977 0.00000 0.00000
												CHANNELS 3 Zrotation Xrotation Yrotation
												End site
												{
													OFFSET 0.00000 0.00000 0.00000
												}
											}
										}
									}
									JOINT LeftHandIndex1
									{
										OFFSET 14.26970 0.00000 2.88139
										CHANNELS 3 Zrotation Xrotation Yrotation
										JOINT LeftHandIndex2
										{
											OFFSET 5.48836 0.00000 0.00000
											CHANNELS 3 Zrotation Xrotation Yrotation
											JOINT LeftHandIndex3
											{
												OFFSET 3.01859 0.00000 0.00000
												CHANNELS 3 Zrotation Xrotation Yrotation
												End site
												{
													OFFSET 0.00000 0.00000 0.00000
												}
											}
										}
									}
									JOINT LeftHandMiddle1
									{
										OFFSET 14.26970 0.00000 -0.09147
										CHANNELS 3 Zrotation Xrotation Yrotation
										JOINT LeftHandMiddle2
										{
											OFFSET 6.17440 0.00000 0.00000
											CHANNELS 3 Zrotation Xrotation Yrotation
											JOINT LeftHandMiddle3
											{
												OFFSET 3.56744 0.00000 0.00000
												CHANNELS 3 Zrotation Xrotation Yrotation
												End site
												{
													OFFSET 0.00000 0.00000 0.00000
												}
											}
										}
									}
									JOINT LeftHandRing1
									{
										OFFSET 12.69180 0.00000 -3.06433
										CHANNELS 3 Zrotation Xrotation Yrotation
										JOINT LeftHandRing2
										{
											OFFSET 5.62556 0.00000 0.00000
											CHANNELS 3 Zrotation Xrotation Yrotation
											JOINT LeftHandRing3
											{
												OFFSET 3.56744 0.00000 0.00000
												CHANNELS 3 Zrotation Xrotation Yrotation
												End site
												{
													OFFSET 0.00000 0.00000 0.00000
												}
											}
										}
									}
									JOINT LeftHandPinky1
									{
										OFFSET 11.11390 0.00000 -6.03719
										CHANNELS 3 Zrotation Xrotation Yrotation
										JOINT LeftHandPinky2
										{
											OFFSET 4.52789 0.00000 0.00000
											CHANNELS 3 Zrotation Xrotation Yrotation
											JOINT LeftHandPinky3
											{
												OFFSET 2.46976 0.00000 0.00000
												CHANNELS 3 Zrotation Xrotation Yrotation
												End site
												{
													OFFSET 0.00000 0.00000 0.00000
												}
											}
										}
									}
								}
							}
						}
					}
					JOINT pCube4
					{
						OFFSET 0.00000 10.91090 1.10792
						CHANNELS 3 Zrotation Xrotation Yrotation
						End site
						{
							OFFSET 0.00000 0.00000 0.00000
						}
					}
				}
			}
		}
	}
	JOINT RightUpLeg
	{
		OFFSET -9.98441 0.00000 0.00000
		CHANNELS 3 Zrotation Xrotation Yrotation
		JOINT RightLeg
		{
			OFFSET 0.00000 -42.11790 0.00000
			CHANNELS 3 Zrotation Xrotation Yrotation
			JOINT RightFoot
			{
				OFFSET 0.00000 -45.00020 -0.00001
				CHANNELS 3 Zrotation Xrotation Yrotation
				JOINT RightForeFoot
				{
					OFFSET 0.00000 -3.74820 0.00000
					CHANNELS 3 Zrotation Xrotation Yrotation
					JOINT RightToeBase
					{
						OFFSET 0.00000 0.06325 14.43120
						CHANNELS 3 Zrotation Xrotation Yrotation
						End site
						{
							OFFSET 0.00000 0.00000 0.00000
						}
					}
				}
			}
		}
	}
	JOINT LeftUpLeg
	{
		OFFSET 9.98441 0.00000 0.00000
		CHANNELS 3 Zrotation Xrotation Yrotation
		JOINT LeftLeg
		{
			OFFSET 0.00000 -42.11800 0.00000
			CHANNELS 3 Zrotation Xrotation Yrotation
			JOINT LeftFoot
			{
				OFFSET 0.00000 -45.00070 0.00000
				CHANNELS 3 Zrotation Xrotation Yrotation
				JOINT LeftForeFoot
				{
					OFFSET 0.00000 -3.74824 0.00000
					CHANNELS 3 Zrotation Xrotation Yrotation
					JOINT LeftToeBase
					{
						OFFSET 0.00000 0.06325 14.43110
						CHANNELS 3 Zrotation Xrotation Yrotation
						End site
						{
							OFFSET 0.00000 0.00000 0.00000
						}
					}
				}
			}
		}
	}
}
MOTION
Frames: 4
Frame Time: 0.050000
0.012260824435804714 0.03986179281986427 -0.000922426142783257 -0.019752840908125943 -0.019111488478353436 0.039355942850672225 6.298156239094403 1.5367247473931434 -2.5013903747875976 -0.745229318263693 3.4386623016450404 0.3956282721277117 -0.5523749785082762 -1.2258656700818953 1.61884098004096 -0.2585345849999645 -0.4633646533235065 -0.17300792986061603 0.20272306374059457 12.679948325711251 -1.8053837644812136 0.33117645952132313 0.06356566210384218 -4.362252190097368 1.0831031873917238 -16.203840398567454 -0.4393173255299984 -10.864509489651608 3.675806460402513 -17.10696731825428 79.61584820183761 13.579626552488524 20.52236249365792 0.8343042950765018 -3.036763932668678 111.68679758448836 4.219554919551864 0.11886179845548567 1.7577705834806217 4.531017696493676 -0.11159421349976278 -1.5796428442434503 0.036901593959951066 0.02620530950337209 -56.184667548027754 0.010764703684548554 -0.036058529761827905 -56.2637898565823 -38.79946105300226 -0.011748080413557687 -0.025757990337611725 -0.04566416436556685 0.03765985096641193 0.02424232007120089 -0.010100806596622118 -0.047767507721306876 -0.038746276816668646 -36.68045429032386 -0.010630747835567236 0.022353636178951423 -0.023084029041757503 0.009630895598516395 0.005612203585123292 -0.029092852588052102 -0.04410941110082238 -0.010350007489794786 -19.71265402777032 0.01903024444980555 -0.02823778490851495 -0.03355808643492229 0.01991646563718718 0.00856606636253408 0.04478448598450844 -0.03144218692310643 0.04604596946836263 24.029493002596663 0.0015965309812673292 -0.03040846285656922 28.846236351841057 -0.02350240956922371 0.007774415071942767 28.842635162708447 0.024674327276167998 0.024018774606584897 10.953225322225602 2.464446963572985 14.845016339395874 -73.23373939140261 23.982712953773813 -18.737045498151044 6.951581591328039 -7.6794632241249055 -101.5311249154974 -5.877139003053863 -4.859730768159992 -2.082691838943948 -0.43938129887960925 0.07291195587278095 -8.079173919159548 -0.015954857353337088 -0.03849114189457908 44.553681121197165 0.01519153703994607 -0.04867775861101769 44.59042289530925 12.445024351263937 0.04345626650466756 -0.032843870959156966 -0.038576599479855596 0.0484349942375363 0.013147822216532984 0.001830604163269762 0.046503658013689046 -0.002265199576801672 11.092093634978376 -0.006436946843327909 0.04658981564486569 -0.034026026040293034 -0.007444447646350739 -0.0012319575780279234 0.00983393001041425 0.025737612016593032 0.010079641736626592 4.741108749685134 -0.024269140072159655 0.0400025986487518 0.02633608740075529 -0.0011657779491263975 0.010015340535484477 0.029440986677130007 0.029707126212727506 -0.01628562720693128 -5.561169967080239 0.04993416681614586 0.03960478436109304 -6.672083441397123 -0.026344325534595908 0.04163710503436173 -6.724292218035105 0.00402386125335823 -0.042752076566777104 -0.002308948445545147 -0.04834607115739942 -0.010508838728884718 8.090870053272944 3.473175248281008 -19.26701778049308 -0.022272644491435213 10.439447849638848 0.04379024965240266 -5.6189955376414105 -15.69037509044381 3.194158475308977 0.013756079595072166 -0.04934471121909701 0.004567750262668256 0.04666025173789525 4.733883572465136 0.003171923120894471 12.481434366702915 -8.285937646048486 6.919106947584247 0.020677055770442293 46.35001006780177 0.039510696889191274 -4.2940969714935315 -14.733523472420256 -3.843568717299861 0.02006424720435879 0.0276080175241232 -0.048428466980502405 0.007997208200635063 -10.75594167884389 0.004329049127742621 
-0.001730996723167552 0.006336264406549809 0.009356696436146441 -0.013007716454492467 -0.03712258905502676 -0.019521650721705676 6.417125345595509 1.680279957517384 -2.4915233477021976 -0.6821408025098262 3.483952303051408 0.4036701785446648 -0.5713800797079747 -1.2467294945355987 1.767236366236789 -0.24607812093511364 -0.5315819828349853 -0.09365309465135432 0.3044898624108851 12.895912467070156 -1.9705497494634114 0.3108260721209469 0.06666308917373533 -5.037548746555328 1.0038332081869143 -16.13869881644958 -0.4599634806658014 -11.140814467709234 3.7523396627210475 -17.01995934254363 78.12445874562613 12.06988266538429 22.348778366127753 1.1829638067353514 -2.8531377782726257 111.35565984745959 3.9982566509104425 0.12683144425759668 1.912283370646499 4.571387110378296 -0.12331888527786936 -1.5933821767926892 0.027930853965735684 -0.032276674752276684 -56.21085307186276 -0.004710422958153201 2.8617757704714263e-05 -56.193578954488224 -38.80310021059484 0.008461439077503075 0.012302557584205143 -0.007917172643512568 0.0051638253225101596 -0.011537443460757626 -0.004958230140412861 0.04589405316908256 -0.02416573639029856 -36.70040407145988 0.028224021367769997 -0.011807325568587672 0.002753550221210636 0.0490930518578545 0.013629860516487348 -0.03075466930980717 -0.003167713592727946 -0.021628105916056156 -19.806435491264796 -0.0036267375381080326 -0.01721654438097748 -0.001177588926824515 0.0032127637175502033 -0.028656493603347658 -0.03330754542472413 0.009151490028841035 0.022552270206703952 24.049807278822453 -0.012243916201272265 -0.014654258265117442 28.897469085173984 0.026279499058983774 0.022411190045049215 28.879869966273315 0.005659411854088177 0.0013565551927351642 11.088096210593507 2.539880881891406 14.929663387469297 -72.53383859147496 22.319615758598538 -19.69653225615023 6.8032843589336 -7.121300956353935 -101.28311650646404 -5.7743715182189455 -4.250770990395192 -2.6789139485674456 -0.4830981296919183 0.07461351595236068 -8.151959533552926 -0.000300452723249268 -0.0057525749813371425 44.53321299704517 0.034523617402816675 0.04237511957672362 44.575252590695 12.457860316472978 0.02302026323992152 -0.028478165349769716 0.03418429943710306 -0.02068126321049834 0.03130460508827329 0.04230503060584577 0.036374632417700635 -0.014776863172706522 11.081768212283173 -0.03195082914158613 -0.008285255329926149 0.0005295528287982017 -0.006426951501267279 0.039808950053115584 0.0021714952732643632 -0.014396988324148416 0.010761916251980473 4.762219191343654 0.0012276762188377522 0.047178938884602804 0.03726526402160185 0.017838520277304558 0.03189167996884169 0.0023841241798098884 0.02002817423610811 -0.024914620119789052 -5.606458243453897 0.03844796867777947 0.043804326364360574 -6.7651841849153875 -0.03895514994430112 -0.025235065297358705 -6.733715387081361 0.016685164044910855 0.010836456625288999 0.0178820609996533 0.04794993895467163 -0.00992588075345697 8.00666223984761 3.4478483799843898 -19.219140889194765 0.0009125661930457651 10.364037119907257 -0.009312115477985591 -5.647027269067301 -15.65099851400867 3.161719084519069 0.010394064015814051 -0.02555285525515452 0.006606607180372206 0.013551746828143781 4.6549894492443 -0.029632316092392794 12.410656132633523 -8.235686412068972 6.906010178042865 0.012024319677130909 46.407579557144516 0.01618048661062834 -4.331252941858942 -14.724019473113666 -3.7918876136413657 0.010605686404275675 0.016020226140098008 0.009176090113144584 0.012053714624839678 -10.712788354113755 0.002264469032447113 
-0.027774937245922057 -0.0050533519768803225 -0.04289940017555274 -0.0013435966215888395 0.029064502262234577 -0.04845542993966895 6.544659664772282 1.8346931835757108 -2.5111625996820353 -0.7585301950865786 3.521806548496806 0.412000279370924 -0.5134938374405931 -1.251376072436984 1.890178349631101 -0.1847252340146049 -0.5709081106078964 -0.09551148819471304 0.331361684040085 13.26371990432805 -2.1920797651285167 0.2994932489792174 0.15636315154925487 -5.667771370421087 1.1144971554491572 -16.02004998824479 -0.5212338604268467 -11.649817636435575 3.8476783199785496 -16.991627095836485 76.12350403926457 10.151350386568774 25.277932850745582 0.6409933726994939 -2.7850503439100955 110.81259949154698 3.8932447702089967 0.13616262904664655 2.0786674252207424 4.544571494027543 -0.09928314230021001 -1.6197094062856388 -0.007908842464082912 0.002609012033245594 -56.256764135798974 -0.007045211242055846 0.04722456697764682 -56.26629827139773 -38.77205568181801 0.00635910449999524 0.0408128331632379 -0.03315759091313435 -0.024989113199593883 -0.02802484675745758 0.02709142830646161 -0.0064801253722660745 -0.02019561954784886 -36.72568771378175 0.03935140351615937 -0.003966034615881937 0.039708987140496775 -0.000783150975679854 0.006176262820370565 0.002358542935933746 0.017117499505978018 -0.025284966854382782 -19.770640080050544 -0.02269816263425918 0.015707657425450633 -0.02286472167637502 -0.0028561756870838528 0.036299367759463276 0.011421184838888666 -0.013330218167171889 0.0015893840597480796 24.01955130570861 0.021548199850124503 0.0055238843110868375 28.904587657305477 -0.01762527745715097 0.020716253223059648 28.839993845864196 0.0022826264413802785 0.015818019279275546 11.43426989256196 2.5788958987488764 14.917347588668344 -71.08974815768195 20.318368849507365 -21.802647919506363 8.089412580254812 -6.864708399463466 -101.61427269429335 -5.349208864252863 -3.162822265645007 -3.472470857520983 -0.44408541013641034 0.01970006752784182 -8.150941516405677 0.029981695755958892 -0.02016508815238855 44.54511779556275 0.016648508256334738 -0.007298660571562976 44.56310547952692 12.426966710557565 -0.009852482107469446 0.03988473344144519 0.04781086653961636 0.01361726545930581 -0.025441085109125003 -0.048919705341566894 -0.030953892772677 -0.011449075858338844 11.059030758024386 0.03300492470419275 0.04578195588717266 -0.04116642124828467 -0.0020066974307917243 0.0014272079515415094 -0.04559072228615499 -0.024818653028616983 -0.032430100033396095 4.747687868240098 -0.02810133665273134 -0.03374188079070757 -0.015751770304198727 0.012911199958087103 0.010308110131128116 0.0067707824235542806 -0.016899095008300224 0.019530605831095643 -5.613450853756807 -0.0492084205527962 0.03873406041158469 -6.739071362015559 -0.02624868544928751 -0.0008438808211643948 -6.71427871225129 -0.016959279290360486 0.003504496559254336 0.026943944916786255 0.030270336735162086 -0.018477444656428508 8.013104865883149 3.450523896002899 -19.22537279479418 0.03135788425437008 10.366732129542648 -0.009935643668521666 -5.649763197109871 -15.69553875724424 3.148436926203919 -0.004446129087247183 0.023419996509604916 -0.04435690234734441 -0.004009069807250276 4.72095254067459 -0.014828211510171455 12.43800893884895 -8.20860342534918 6.876161842272476 0.04252897462822911 46.36137930588998 0.01607047111681272 -4.339982870520417 -14.76648657038875 -3.79927824410407 -0.043846390672734645 -0.027748921106490673 0.01575459415988933 -0.02492139604297366 -10.783429302157687 0.027051667652177286 
0.0038145460064022505 -0.0009546663459367149 0.04130854016990843 0.009962265799535405 0.021393836982370646 0.01825299724230139 6.640876928638014 1.9462944473273263 -2.426369317561899 -0.7225052229782306 3.583467503393938 0.43044912043690936 -0.5343120190169328 -1.2897206704493442 1.971086538558376 -0.17120577784201763 -0.5677807455478519 -0.15608593485954836 0.35460877835718024 13.652450317168368 -2.497900071087935 0.23178143002953144 0.23302284860722594 -6.332436008849197 1.1762119401750717 -15.949961763046092 -0.5262884333219688 -12.14029481377286 3.9899060343151307 -16.79852370836034 74.09038103149156 8.784405818367269 28.52195330968066 -0.7260769300415342 -2.743373013894439 110.25360726811591 3.874311991838708 0.11626552674744015 2.149629310094912 4.539432590407697 -0.13645534358883674 -1.5793285068207477 0.028289175792964593 0.029562075366879 -56.21123589681479 0.007821577798556512 -0.0018594440052716688 -56.20713277786005 -38.75880276232047 0.02409000931963844 0.008265760650451528 -0.046477350606086584 0.00518668108005724 -0.03611143149560311 0.04924312093946435 0.044066839695661254 0.04249376233040649 -36.691897484968145 0.015069238714739423 0.03527283125352704 -0.02635025418179222 0.0233244747897559 -0.03160101095046862 -0.02690784862904403 0.010393538151175703 -0.027808708270643676 -19.73131500949706 0.013926912073708837 0.045079188504024446 0.033875740546437286 -0.031236898484043325 -0.038000350191819986 -0.03490803096059859 0.02646890525851407 -0.008672857960898672 24.06715716521129 -0.009264316413165836 -0.03137646359380043 28.902160907662257 0.046078163572257816 -0.04181249107724504 28.867248593827053 0.04014670251529902 -0.046802459849219005 11.856145281592052 2.674561494798174 14.879278159114163 -69.43166950597593 18.671741506282405 -24.708710838757817 10.23748473890822 -6.865122363608937 -102.41281324160497 -5.1829256083604465 -2.0819199283008127 -4.16130311129513 -0.44194328670973726 0.07621492185471845 -8.138591655679242 0.014193387638825517 0.03369851614333526 44.53556509722106 0.028367538977125076 -0.002918258321763071 44.58482677754316 12.460228763312543 0.021425500558674385 0.029989709049822344 -0.014121041153617668 0.023025025459876305 -0.0020484403210865114 -0.007557763758134155 0.032908394711206365 0.0432197164691527 11.09510332712925 -0.004831158287940356 -0.003599111509190164 -0.025292444044391196 -0.038561423023335574 -0.002465669682568762 0.011170564812256166 0.004037071945648838 -0.03561512694916045 4.809115189247765 0.012223099656933401 -0.04570159381174056 0.02395530598533187 -0.01824655173174117 -0.03617039839463821 -0.009460758275273045 0.020472026855161304 0.0011602991971944613 -5.595337434402556 0.046018480095325116 -0.029016445647694955 -6.7410941213458555 0.03563051254049104 -0.01797473663067112 -6.683484982915228 0.02649995456798488 -0.016684877849643363 -0.0010255555315929847 0.00046834978150245364 -0.044925153729264616 8.091132707321663 3.4691018596371355 -19.2607041471056 0.013355231333171276 10.358618539708218 -0.01719029583567631 -5.650937523653139 -15.659069185870832 3.172731414518251 -0.03615782928407557 -0.016141400308892995 0.010650767267040572 -0.005957721789428939 4.685070144430471 -0.0366992233878191 12.496311136578496 -8.209152233397287 6.911574281464782 0.011788163147818892 46.358336450707355 -0.0017638855449961471 -4.339133079008133 -14.776257722603296 -3.8407217449945104 -0.018423547276742044 0.024139542268037086 -0.0007609101419147498 0.015070535416060795 -10.77281165147275 -0.04419045321481071 
